<svg width="32" height="32" viewBox="0 0 32 32" fill="none" xmlns="http://www.w3.org/2000/svg">
<path fill-rule="evenodd" clip-rule="evenodd" d="M16 32C24.8366 32 32 24.8366 32 16C32 7.16344 24.8366 0 16 0C7.16344 0 0 7.16344 0 16C0 24.8366 7.16344 32 16 32ZM7.99955 20.871L7.99956 23.2727H18.8912V20.8151H11.295L18.7516 11.8226V9.42081L8.11126 9.42081L8.11126 11.8784L15.4003 11.8784L7.99955 20.871ZM21.7068 22.9097C22.0792 23.2634 22.5446 23.4403 23.1032 23.4403C23.6617 23.4403 24.1179 23.2634 24.4716 22.9097C24.8254 22.5373 25.0022 22.0998 25.0022 21.5971C25.0022 21.0758 24.8254 20.6383 24.4716 20.2845C24.1179 19.9122 23.6617 19.726 23.1032 19.726C22.5446 19.726 22.0792 19.9122 21.7068 20.2845C21.3531 20.6383 21.1762 21.0758 21.1762 21.5971C21.1762 22.0998 21.3531 22.5373 21.7068 22.9097Z" fill="#A634DD"/>
</svg>
